<?xml version="1.0" standalone="no"?>
<!DOCTYPE svg PUBLIC "-//W3C//DTD SVG 20010904//EN"
 "http://www.w3.org/TR/2001/REC-SVG-20010904/DTD/svg10.dtd">
<svg version="1.0" xmlns="http://www.w3.org/2000/svg"
 width="1350.000000pt" height="1092.000000pt" viewBox="0 0 1350.000000 1092.000000"
 preserveAspectRatio="xMidYMid meet">
<metadata>
Created by potrace 1.10, written by Peter Selinger 2001-2011
</metadata>
<g transform="translate(0.000000,1092.000000) scale(0.100000,-0.100000)"
fill="#000000" stroke="none">
<path d="M6595 9631 c-27 -15 -126 -67 -220 -116 -93 -48 -228 -118 -300 -155
-71 -37 -220 -114 -330 -170 -192 -98 -308 -158 -660 -340 -209 -108 -349
-182 -405 -214 -25 -14 -52 -29 -60 -33 -8 -4 -37 -20 -63 -36 -48 -29 -51
-30 -149 -24 -89 5 -102 3 -119 -14 -23 -23 -24 -48 -5 -75 13 -16 27 -19 110
-19 l96 0 1 -1055 2 -1055 -48 -25 c-81 -42 -107 -128 -59 -193 49 -66 128
-76 189 -24 34 29 39 39 43 88 4 52 2 58 -29 94 -33 37 -34 41 -36 136 -2 62
1 101 8 105 6 3 40 -22 76 -57 l64 -64 -1 -155 c-1 -85 -1 -161 -1 -168 1 -9
12 -12 34 -10 l32 3 -4 121 c-2 73 1 124 6 127 6 4 40 -24 76 -62 l66 -68 -3
-132 -4 -131 -30 -28 c-56 -51 -67 -103 -32 -160 58 -94 177 -91 224 6 9 18
16 45 16 61 0 38 -38 93 -78 110 -29 13 -32 18 -32 60 0 25 -3 62 -5 81 -3 19
-1 42 4 50 9 12 23 3 78 -53 l68 -67 0 -163 c0 -148 2 -162 18 -165 10 -2 25
2 33 9 16 13 16 43 -2 192 -5 42 -4 47 13 47 24 0 133 -113 134 -137 0 -10 0
-81 -1 -158 l-1 -140 -34 -30 c-50 -45 -69 -88 -55 -130 6 -19 20 -45 31 -59
38 -48 131 -58 176 -18 26 22 53 75 53 102 0 39 -32 91 -72 117 l-38 26 0 113
c0 89 3 114 13 114 8 0 42 -29 76 -65 l63 -65 -3 -155 c-3 -161 1 -180 37
-173 17 3 19 15 19 128 0 148 1 149 88 61 l57 -59 0 -151 0 -151 -41 -25 c-95
-60 -86 -177 18 -229 42 -21 65 -20 108 5 45 27 65 65 65 125 0 43 -4 51 -45
88 l-45 42 0 105 c0 58 3 109 7 113 4 4 38 -26 76 -66 l69 -72 -3 -153 c-3
-159 1 -178 37 -171 17 3 19 15 19 127 0 76 4 126 10 128 12 4 109 -94 127
-128 9 -17 12 -63 10 -152 l-3 -127 -37 -19 c-53 -27 -74 -54 -79 -105 -9 -79
49 -146 128 -146 124 0 175 161 75 236 -23 18 -25 25 -27 124 -3 127 6 134 72
62 79 -86 74 -70 74 -241 l0 -156 30 0 30 0 -4 123 c-2 92 0 122 9 122 14 0
115 -101 130 -130 11 -20 8 -180 -4 -198 -4 -7 -22 -18 -39 -26 -56 -24 -81
-60 -81 -117 0 -47 3 -55 42 -90 35 -33 48 -39 86 -39 49 0 100 34 117 77 8
22 29 33 29 15 0 -5 16 -27 36 -50 33 -39 39 -42 84 -42 43 0 54 5 90 38 36
35 40 43 40 89 0 62 -25 97 -87 124 l-43 18 0 98 0 98 63 68 c34 37 68 67 75
67 11 0 13 -26 10 -122 l-3 -123 30 0 30 0 0 162 0 162 68 67 c47 46 71 63 76
55 4 -7 6 -58 3 -113 l-5 -101 -38 -38 c-35 -35 -39 -44 -39 -89 0 -45 4 -54
40 -90 36 -36 45 -40 88 -40 43 0 53 5 85 36 44 44 55 90 35 142 -12 32 -26
45 -91 87 -13 8 -16 33 -17 130 -1 66 -1 128 -1 138 1 21 122 147 141 147 9 0
11 -32 8 -121 -3 -106 -1 -123 14 -132 35 -23 41 3 39 165 l-2 153 63 68 c35
37 69 67 76 67 9 0 12 -28 12 -106 l0 -106 -35 -32 c-46 -43 -67 -94 -55 -136
14 -48 35 -76 71 -94 41 -20 62 -20 102 0 39 20 61 44 77 85 16 38 -3 103 -37
127 -66 47 -62 35 -67 192 l-4 144 66 68 c39 41 69 65 75 59 5 -5 9 -62 10
-127 l2 -119 25 0 25 0 3 165 3 165 61 62 c35 35 68 63 75 63 10 0 12 -28 11
-114 l-1 -115 -43 -30 c-57 -39 -75 -93 -53 -154 21 -56 58 -82 117 -82 76 0
132 58 132 136 0 34 -7 46 -45 83 l-45 44 0 160 0 159 66 63 c38 36 69 59 74
54 5 -5 5 -55 -1 -118 -10 -114 -5 -136 31 -136 36 0 40 21 33 179 l-6 151 65
65 c35 36 70 65 76 65 9 0 10 -29 7 -107 -5 -93 -9 -111 -28 -131 -17 -18 -22
-36 -22 -78 0 -49 3 -57 38 -91 33 -34 43 -38 88 -38 46 0 54 3 90 42 34 37
39 48 39 89 0 41 -5 51 -39 85 -25 25 -48 39 -64 39 -14 0 -29 5 -32 11 -4 5
-9 64 -11 131 l-4 120 63 66 c36 36 69 62 75 58 8 -4 9 -44 5 -126 l-6 -120
38 0 38 0 -5 161 -5 161 64 69 c36 38 69 69 74 69 5 0 9 -48 9 -106 0 -104 -1
-107 -30 -141 -24 -27 -30 -43 -30 -79 0 -83 51 -134 132 -134 38 0 50 6 80
36 73 73 52 185 -42 215 -19 7 -38 16 -41 22 -4 5 -5 482 -2 1061 l4 1051 95
0 c83 0 97 3 110 19 19 27 18 52 -5 75 -17 17 -30 19 -119 14 l-100 -6 -58 36
c-62 37 -102 59 -224 125 -71 38 -127 66 -575 297 -104 53 -253 130 -330 170
-77 40 -221 114 -320 165 -190 98 -415 214 -553 286 -46 24 -93 44 -105 43
-12 0 -44 -13 -72 -28z m110 -55 c11 -7 101 -55 200 -106 397 -205 745 -384
1065 -550 107 -55 313 -159 458 -231 227 -113 287 -149 255 -149 -13 0 -4007
0 -4020 0 -37 0 -1 27 95 71 139 65 168 80 757 384 88 45 230 119 315 163 728
375 783 404 805 418 25 18 45 18 70 0z m-2004 -1147 c6 -11 8 -27 5 -35 -7
-19 -8 -1596 -1 -1615 3 -8 0 -21 -5 -29 -8 -12 -22 -3 -74 50 l-65 65 -2 782
c0 430 2 786 5 792 3 5 33 10 66 10 50 0 62 -3 71 -20z m213 -5 c9 -33 -5 -48
-33 -39 -24 7 -45 40 -36 55 3 6 19 10 35 10 22 0 29 -6 34 -26z m130 -5 c62
-54 77 -89 74 -165 -2 -41 -8 -69 -15 -71 -12 -4 -117 97 -134 129 -10 19 -12
98 -3 122 9 25 40 19 78 -15z m256 6 c17 -15 20 -31 20 -97 0 -103 -11 -107
-85 -31 -78 80 -92 112 -62 142 17 18 102 9 127 -14z m208 13 c16 -16 16 -127
-1 -134 -18 -6 -127 102 -127 126 0 18 7 20 58 20 32 0 63 -5 70 -12z m407 4
c15 -10 14 -552 -1 -552 -6 0 -39 30 -72 66 l-62 65 0 209 0 209 58 4 c31 2
59 4 62 5 3 1 10 -2 15 -6z m515 -233 c124 -126 231 -229 238 -229 13 0 210
194 388 382 l72 75 87 7 c48 4 89 5 92 2 12 -11 -11 -46 -46 -71 -22 -14 -164
-152 -316 -306 l-276 -279 -287 288 c-158 158 -302 299 -319 314 -18 14 -33
34 -33 43 0 15 9 16 88 10 l87 -7 225 -229z m-90 226 c7 -8 9 -22 6 -31 -6
-15 -9 -15 -29 -1 -29 19 -35 47 -9 47 11 0 25 -7 32 -15z m188 0 c19 -6 17
-225 -2 -225 -25 0 -125 112 -136 153 -13 44 -6 74 18 79 18 4 99 -1 120 -7z
m406 9 c12 -4 16 -20 16 -56 0 -48 -3 -53 -67 -119 -37 -38 -70 -66 -75 -61
-5 5 -7 58 -6 118 l3 109 50 6 c28 3 53 7 57 7 3 1 13 -1 22 -4z m109 0 c11
-12 -13 -44 -33 -44 -23 0 -24 4 -10 31 11 19 31 25 43 13z m502 -8 c6 -2 10
-86 11 -211 l1 -208 -62 -63 c-33 -35 -66 -64 -73 -64 -8 0 -12 73 -14 263 -2
144 -1 267 0 274 2 6 11 13 20 15 16 4 95 -1 117 -6z m415 -8 c-1 -24 -122
-143 -134 -131 -8 8 -8 138 1 146 3 4 35 7 70 7 59 0 63 -2 63 -22z m208 10
c27 -27 13 -62 -55 -131 -38 -39 -72 -66 -80 -63 -14 6 -19 151 -5 172 21 32
115 47 140 22z m202 2 c16 -10 17 -99 1 -128 -16 -28 -117 -132 -128 -132 -17
0 -18 13 -13 101 l5 80 47 45 c48 45 62 51 88 34z m122 -15 c-7 -44 -72 -64
-72 -22 0 31 19 48 50 45 19 -2 24 -8 22 -23z m286 -770 l2 -789 -62 -63 c-35
-35 -66 -62 -71 -60 -9 3 -11 1683 -2 1698 4 5 34 9 68 7 l62 -3 3 -790z
m-3058 610 c0 -96 -3 -175 -8 -175 -10 0 -104 99 -124 130 -12 19 -15 47 -13
120 1 52 3 96 4 98 0 1 33 2 71 2 l70 0 0 -175z m1020 17 l0 -158 -35 -34 -35
-34 -36 35 -36 36 0 144 c0 79 1 150 1 157 1 8 22 12 71 12 l70 0 0 -158z
m1021 141 c2 -10 3 -59 1 -110 l-3 -92 -63 -67 c-35 -37 -67 -65 -72 -62 -6 5
-11 327 -5 346 1 1 32 2 70 2 57 0 69 -3 72 -17z m-2923 -63 l63 -70 0 -872
c0 -480 0 -877 0 -883 -1 -5 -32 22 -71 60 l-69 69 -1 883 c0 486 4 883 8 883
4 0 36 -31 70 -70z m3735 -822 l-2 -881 -57 -59 c-32 -32 -63 -58 -69 -58 -7
0 -9 280 -8 876 l2 875 39 43 c22 23 47 54 56 69 10 14 23 24 29 21 9 -3 12
-219 10 -886z m-1218 566 l-1 -286 -58 -64 c-93 -103 -91 -107 -88 198 1 145
5 272 7 283 4 18 124 155 135 155 3 0 5 -129 5 -286z m-1289 209 l59 -67 5
-271 c3 -148 2 -277 -2 -285 -4 -10 -23 3 -73 52 l-66 66 0 279 c0 153 0 281
0 286 2 18 21 3 77 -60z m-603 -52 l58 -60 -3 -83 c-2 -47 -7 -83 -13 -83 -5
0 -37 28 -70 63 l-60 64 -6 76 c-10 122 -2 124 94 23z m2507 -13 l0 -83 -66
-67 c-36 -38 -70 -68 -75 -68 -5 0 -9 39 -9 87 l0 87 62 63 c34 35 68 63 75
63 10 0 13 -22 13 -82z m-2723 -35 c71 -76 73 -80 73 -163 0 -89 -11 -90 -91
-5 -56 59 -56 61 -63 136 -10 110 3 115 81 32z m2926 -27 l-2 -77 -63 -68
c-78 -84 -90 -80 -85 25 4 73 4 74 58 131 89 96 95 95 92 -11z m-3173 14 c0
-6 162 -174 360 -373 l360 -362 0 -872 c0 -502 -4 -873 -9 -873 -5 0 -44 36
-87 81 -44 45 -208 210 -366 369 l-288 287 0 869 c0 478 0 872 0 877 0 11 30
8 30 -3z m3376 -44 c-4 -40 -7 -1322 -3 -1662 1 -28 -40 -72 -376 -409 -207
-208 -377 -374 -377 -369 0 5 -1 400 -1 878 l0 870 368 372 c202 205 374 373
382 373 11 1 12 -10 7 -53z m-1224 -262 l0 -279 -63 -68 c-34 -37 -67 -66 -72
-64 -7 2 -10 102 -9 282 l2 278 52 56 c55 58 81 81 86 76 2 -1 3 -128 4 -281z
m-879 210 c31 -36 57 -68 57 -72 5 -161 3 -552 -3 -552 -5 0 -37 27 -70 61
l-62 61 -5 280 c-3 154 -3 282 -1 284 12 12 31 -2 84 -62z m-616 -36 l61 -63
3 -75 c1 -41 1 -81 0 -87 -2 -26 -27 -9 -88 58 l-63 68 0 74 c0 69 4 87 19 87
4 0 34 -28 68 -62z m2109 -36 l-4 -74 -68 -69 c-37 -37 -71 -66 -76 -63 -4 3
-8 41 -8 86 l0 80 67 69 c83 86 96 82 89 -29z m-2370 30 c5 -4 36 -35 68 -70
l57 -63 -3 -77 c-2 -46 -7 -77 -14 -77 -6 0 -37 29 -70 64 -58 63 -59 65 -65
135 -7 90 -2 108 27 88z m2574 -78 l0 -75 -52 -57 c-29 -31 -58 -62 -65 -69
-26 -28 -33 -13 -33 70 l0 82 66 68 c36 37 70 65 75 62 5 -4 9 -40 9 -81z
m-1555 -22 c6 -4 34 -33 64 -64 l53 -57 1 -280 c1 -182 -2 -281 -8 -281 -5 0
-37 27 -70 60 l-59 61 -1 284 c0 157 2 285 5 285 3 0 10 -4 15 -8z m529 -277
l1 -280 -59 -62 c-32 -35 -64 -63 -71 -63 -9 0 -12 64 -11 279 l1 279 60 65
c33 36 64 64 69 63 5 -1 10 -121 10 -281z m-1014 26 c0 -44 -4 -82 -9 -86 -5
-3 -39 25 -75 62 l-66 68 0 81 c0 44 3 84 7 88 4 4 38 -24 75 -63 l68 -70 0
-80z m1631 129 c-2 -41 -6 -80 -10 -87 -11 -21 -123 -133 -132 -133 -5 0 -9
38 -9 86 l0 85 62 65 c81 84 94 82 89 -16z m-1894 -50 l51 -55 3 -78 c2 -42
-1 -81 -6 -86 -6 -6 -35 18 -77 65 l-68 75 0 73 c0 40 3 76 6 79 9 9 31 -9 91
-73z m2096 53 c3 -10 2 -48 -1 -84 -7 -64 -9 -69 -69 -134 -34 -36 -67 -64
-73 -60 -5 3 -10 40 -10 82 l0 75 63 69 c64 71 82 81 90 52z m-1120 -103 c26
-21 52 -19 61 6 3 8 12 14 21 14 13 0 15 -36 15 -284 l0 -284 -36 -32 -37 -32
-35 35 -35 35 1 278 c1 154 1 280 2 282 1 7 21 -1 43 -18z m-587 -72 c78 -84
84 -95 84 -170 0 -101 -12 -101 -103 -1 l-57 63 0 73 c0 106 6 109 76 35z
m1304 -30 l0 -83 -66 -67 c-37 -38 -73 -68 -80 -68 -18 0 -20 130 -3 163 15
28 125 137 138 137 7 0 11 -31 11 -82z m-1495 -45 l64 -68 1 -82 c0 -62 -3
-83 -13 -83 -7 0 -41 31 -75 69 l-62 70 0 80 c0 51 4 81 11 81 6 0 39 -30 74
-67z m1699 44 c0 -9 -1 -46 -2 -82 l-2 -66 -64 -64 c-88 -90 -96 -88 -87 32
l6 72 64 66 c62 64 87 76 85 42z m-404 -203 l0 -75 -62 -68 c-35 -38 -71 -69
-82 -70 -16 -1 -18 6 -15 83 l4 85 67 66 c37 36 72 64 78 60 5 -3 10 -40 10
-81z m-899 29 c74 -79 79 -90 79 -171 0 -92 -11 -93 -94 -4 l-59 62 -5 80 c-4
74 -3 80 15 80 11 0 40 -21 64 -47z m-191 -76 l64 -68 4 -69 c2 -37 0 -76 -6
-86 -9 -17 -18 -11 -81 56 l-71 74 0 77 c0 70 5 94 19 87 3 -2 35 -34 71 -71z
m1290 -11 l0 -83 -63 -67 c-82 -87 -97 -87 -96 2 0 37 3 74 7 84 10 22 130
148 142 148 6 0 10 -34 10 -84z m-1438 -980 c-1 -482 -4 -877 -7 -879 -4 -1
-35 27 -71 63 l-64 65 0 871 c0 479 4 874 7 878 4 4 36 -22 71 -57 l64 -64 0
-877z m1631 118 l-1 -877 -63 -63 c-35 -35 -67 -64 -72 -64 -4 0 -7 395 -6
878 l2 877 60 63 c33 34 65 62 71 62 8 0 11 -249 9 -876z m-1076 730 l63 -65
0 -80 c0 -61 -3 -79 -14 -79 -8 0 -41 28 -75 63 l-61 62 0 83 c0 56 4 82 12
82 6 0 40 -30 75 -66z m473 -16 l0 -82 -67 -68 c-37 -38 -71 -68 -75 -68 -5 0
-8 38 -8 83 l0 84 61 66 c34 37 68 67 75 67 11 0 14 -20 14 -82z m-675 -47
l60 -63 5 -74 c8 -117 2 -119 -82 -34 -69 71 -78 91 -78 169 0 92 10 92 95 2z
m883 -13 l3 -76 -69 -72 c-41 -42 -74 -70 -81 -66 -6 4 -11 37 -11 82 l0 74
57 63 c91 100 97 99 101 -5z m-1089 -43 c33 -36 61 -71 61 -78 1 -1370 -1
-1732 -7 -1734 -10 -3 -27 11 -86 73 l-48 50 1 870 c0 478 0 872 0 877 0 18
22 2 79 -58z m1284 -811 l-2 -876 -53 -58 c-46 -50 -85 -80 -91 -68 -1 1 0
343 3 758 3 415 3 800 0 855 -3 55 -2 111 3 125 9 27 115 140 132 140 7 0 9
-280 8 -876z m-705 763 l22 -21 29 28 c37 36 43 25 43 -76 -1 -74 -3 -83 -28
-109 -37 -38 -57 -37 -91 7 -22 30 -28 49 -31 105 -6 104 2 114 56 66z m302
-115 l-1 -77 -64 -67 c-35 -38 -68 -68 -74 -68 -7 0 -11 30 -11 82 l0 82 67
68 c36 37 70 65 75 62 4 -3 8 -40 8 -82z m-477 22 c31 -31 60 -66 63 -78 8
-35 0 -149 -12 -153 -6 -2 -38 28 -72 67 l-62 71 0 75 c0 53 4 74 13 74 7 0
38 -25 70 -56z m677 -874 l0 -873 -189 -191 c-104 -105 -201 -206 -216 -223
-15 -18 -32 -33 -38 -33 -16 0 -10 592 5 601 6 4 29 10 50 13 98 16 215 110
262 210 55 117 55 224 0 345 -47 102 -168 195 -274 210 l-45 6 -2 185 -2 185
219 224 c121 123 223 222 225 219 3 -3 5 -398 5 -878z m-724 653 l214 -218 -3
-185 -2 -185 -48 -7 c-103 -14 -211 -97 -272 -208 -29 -53 -30 -60 -30 -175 0
-132 4 -145 75 -241 49 -66 131 -120 210 -138 34 -8 63 -16 65 -18 2 -2 5
-137 6 -300 3 -222 1 -298 -8 -298 -6 0 -23 15 -38 33 -15 17 -111 117 -213
220 l-187 189 0 874 c0 481 4 874 8 874 5 0 105 -98 223 -217z m215 56 c22
-22 53 -19 63 6 3 8 12 15 21 15 12 0 15 -15 15 -83 0 -73 -3 -87 -23 -110
-29 -34 -59 -34 -90 -1 -19 21 -25 41 -31 101 -8 98 2 115 45 72z m-1937 -246
c9 -115 -2 -120 -83 -36 l-66 67 -4 73 c-5 115 -1 117 78 39 l68 -68 7 -75z
m4076 114 l0 -84 -65 -67 c-36 -37 -70 -64 -75 -61 -6 3 -10 40 -10 81 l0 75
63 68 c34 38 68 69 75 70 9 1 12 -22 12 -82z m-3932 -188 l62 -66 0 -81 c0
-56 -4 -82 -12 -82 -6 0 -40 29 -75 64 l-63 64 0 87 c0 64 3 86 13 83 6 -2 40
-33 75 -69z m3727 -20 l0 -84 -62 -62 c-34 -35 -67 -63 -72 -63 -7 0 -11 30
-11 80 l0 79 63 70 c34 39 67 69 72 67 6 -1 10 -40 10 -87z m-3528 -182 c59
-61 60 -63 67 -134 11 -113 2 -118 -80 -39 l-68 67 -4 69 c-4 71 0 100 16 100
5 0 36 -28 69 -63z m3333 -8 c0 -83 -2 -88 -72 -162 -52 -56 -77 -70 -79 -44
-3 33 4 143 9 154 16 27 115 123 128 123 11 0 14 -16 14 -71z m-3840 -59 c27
-27 25 -66 -5 -95 -29 -30 -45 -31 -79 -4 -19 15 -26 30 -26 54 0 57 69 86
110 45z m4335 14 c8 -4 22 -19 30 -33 17 -34 3 -68 -37 -90 -25 -14 -29 -14
-55 5 -38 29 -44 85 -11 108 24 17 46 20 73 10z m-695 -160 c0 -78 -11 -102
-85 -174 -68 -67 -78 -60 -69 50 l6 75 64 63 c35 35 68 61 74 57 5 -3 10 -35
10 -71z m-2933 14 c61 -63 73 -90 73 -169 0 -77 -16 -78 -90 -4 -54 55 -54 56
-61 132 -11 114 0 120 78 41z m1397 6 c20 -52 -1 -99 -47 -108 -46 -9 -115
-70 -138 -124 -45 -105 -7 -214 101 -285 13 -10 35 -17 47 -17 25 0 43 -26 43
-64 0 -65 -20 -70 -108 -26 -73 37 -134 96 -170 165 -23 43 -26 62 -26 140 0
79 3 97 27 143 45 86 127 155 217 183 38 11 47 10 54 -7z m170 -23 c183 -97
239 -313 125 -481 -57 -83 -200 -169 -234 -140 -30 25 -11 110 25 110 23 0 86
38 112 67 37 41 61 114 55 169 -8 82 -75 168 -147 189 -39 12 -60 35 -60 70 0
61 32 65 124 16z m-1354 -195 l55 -56 3 -76 c6 -110 -5 -114 -83 -30 l-65 68
0 84 c0 100 1 100 90 10z m2510 -15 l0 -78 -68 -72 c-37 -39 -71 -68 -75 -65
-4 4 -7 44 -7 88 l0 80 67 68 c36 37 70 65 75 62 4 -3 8 -40 8 -83z m-1329 69
c0 -5 1 -79 1 -162 0 -152 0 -153 -22 -150 -12 1 -34 12 -50 25 -81 65 -85
178 -10 258 31 33 79 50 81 29z m137 -34 l47 -45 0 -75 c0 -74 -1 -76 -40
-116 -28 -29 -47 -40 -64 -38 l-23 3 0 147 c0 191 3 196 80 124z m-1769 -82
c12 -15 21 -32 21 -39 0 -7 -9 -24 -21 -39 -40 -50 -119 -25 -119 39 0 64 79
89 119 39z m3485 10 c9 -8 16 -31 16 -49 0 -18 -7 -41 -16 -49 -16 -17 -61
-21 -80 -8 -36 24 -39 92 -5 112 25 15 68 12 85 -6z m-2837 -146 l61 -63 5
-76 c8 -114 -1 -117 -83 -32 l-70 73 0 80 c0 58 3 80 13 80 7 0 40 -28 74 -62z
m2107 45 c4 -15 2 -102 -3 -139 -2 -22 -128 -147 -139 -140 -8 4 -12 37 -12
84 l0 76 67 68 c37 38 71 68 75 68 3 0 9 -8 12 -17z m-1902 -250 l68 -67 0
-83 c0 -45 -4 -84 -8 -87 -5 -3 -38 26 -75 63 l-67 68 0 86 c0 48 3 87 7 87 4
0 38 -30 75 -67z m1702 35 c0 -10 -1 -46 -2 -80 l-2 -61 -72 -71 -73 -71 -3
89 -3 89 58 62 c58 63 99 81 97 43z m-2164 -150 c39 -43 11 -108 -47 -108 -34
0 -46 8 -62 37 -15 30 -14 36 10 67 26 33 70 35 99 4z m2639 -4 c12 -15 21
-32 21 -39 0 -27 -41 -65 -71 -65 -34 0 -69 31 -69 60 0 67 79 95 119 44z
m-679 -101 l0 -86 -69 -70 c-38 -38 -74 -66 -80 -62 -6 3 -11 38 -11 80 l0 73
58 65 c47 53 79 81 100 86 1 1 2 -38 2 -86z m-1282 5 l62 -70 0 -73 c0 -44 -5
-77 -11 -81 -7 -4 -40 23 -80 64 l-69 70 0 75 c0 111 10 113 98 15z m194 -197
c26 -28 52 -60 58 -71 14 -25 13 -160 -1 -160 -15 0 -119 100 -134 130 -12 24
-19 145 -9 162 8 13 36 -7 86 -61z m886 -14 l3 -76 -70 -73 c-84 -88 -95 -85
-90 24 l4 74 65 67 c35 37 69 66 75 64 5 -2 11 -38 13 -80z m-1370 -77 c30
-28 30 -83 0 -104 -67 -48 -139 32 -88 97 26 32 58 35 88 7z m1847 -5 c14 -13
25 -34 25 -46 0 -30 -38 -69 -67 -69 -30 0 -73 42 -73 70 0 27 43 70 70 70 12
0 32 -11 45 -25z m-685 -126 l0 -81 -62 -64 c-33 -35 -67 -64 -75 -64 -10 0
-13 20 -13 81 l0 80 67 69 c36 38 70 67 75 64 4 -3 8 -41 8 -85z m-472 14 l62
-66 0 -79 c0 -59 -3 -78 -13 -78 -8 0 -42 29 -75 64 l-62 64 0 81 c0 58 4 81
13 81 6 0 40 -30 75 -67z m159 -153 c10 -11 23 -20 30 -20 7 0 21 9 30 20 20
23 39 26 45 8 3 -7 3 -48 0 -90 -4 -74 -6 -79 -40 -109 l-36 -32 -38 41 c-37
41 -38 42 -38 122 0 65 3 80 15 80 8 0 23 -9 32 -20z m-455 -123 c23 -18 32
-61 19 -86 -35 -65 -121 -40 -121 34 0 54 60 84 102 52z m1049 2 c32 -17 42
-56 22 -89 -22 -38 -59 -47 -92 -22 -69 51 -5 152 70 111z m-583 -152 l22 -21
28 27 c16 15 31 24 35 20 4 -3 7 -37 7 -74 0 -62 -3 -73 -32 -113 -36 -50 -46
-54 -55 -28 -3 9 -17 29 -30 44 -20 21 -26 39 -29 94 -5 92 1 98 54 51z m-63
-192 c32 -31 32 -55 0 -89 -29 -31 -53 -33 -89 -5 -32 25 -34 64 -4 96 28 30
63 29 93 -2z m268 -7 c25 -33 17 -71 -19 -95 -33 -21 -74 -8 -92 29 -36 76 61
134 111 66z"/>
<path d="M13467 7043 c-14 -13 -6 -33 13 -33 13 0 20 7 20 20 0 19 -20 27 -33
13z"/>
<path d="M11084 3563 c-15 -15 -44 -52 -65 -82 -30 -42 -36 -57 -28 -68 20
-23 47 -14 86 29 21 23 53 57 71 76 41 42 39 66 -6 70 -25 3 -38 -3 -58 -25z"/>
<path d="M2404 3322 c-11 -7 -57 -100 -107 -213 -14 -31 -30 -59 -36 -63 -6
-4 -36 45 -78 131 l-68 138 -45 0 c-42 0 -45 -2 -42 -24 1 -14 9 -32 16 -40 8
-9 38 -61 66 -116 29 -55 58 -106 64 -114 7 -9 11 -76 11 -195 l0 -181 45 0
45 0 3 173 c2 143 5 178 20 200 9 15 19 29 23 32 4 3 30 50 59 105 29 55 57
105 62 112 24 30 -7 76 -38 55z"/>
<path d="M3593 3323 c-80 -3 -93 -6 -93 -21 -4 -192 2 -648 8 -654 5 -5 97
-12 205 -15 206 -6 227 -3 227 38 0 27 -31 32 -194 28 l-151 -4 -3 132 -3 133
104 -7 c111 -6 124 -2 112 38 -7 20 -12 21 -89 16 -44 -4 -90 -8 -101 -9 -19
-3 -20 3 -20 132 l0 135 164 0 c142 0 165 2 174 17 8 12 7 21 -2 32 -14 16
-75 18 -338 9z"/>
<path d="M7785 3306 c-121 -57 -205 -191 -205 -326 0 -186 151 -350 321 -350
74 0 116 14 184 62 39 28 46 37 43 63 -3 25 -8 30 -33 32 -24 2 -34 -3 -50
-29 -28 -44 -79 -68 -145 -68 -88 0 -146 43 -197 149 -24 48 -28 69 -28 141 0
72 4 93 28 141 37 76 89 125 153 146 49 15 56 15 97 -1 48 -18 82 -45 108 -86
14 -22 19 -23 41 -13 61 28 35 75 -73 133 -74 39 -168 42 -244 6z"/>
<path d="M11021 3323 c-63 -2 -120 -8 -125 -12 -15 -12 -13 -648 1 -662 6 -6
95 -13 206 -16 206 -6 227 -3 227 38 0 27 -31 32 -194 28 l-151 -4 -5 120 c-3
66 -2 125 3 132 6 9 36 10 108 6 86 -5 99 -4 105 11 3 9 0 23 -7 32 -11 14
-28 15 -110 9 -114 -8 -106 -19 -99 145 l5 115 157 -4 c165 -4 188 1 188 39 0
25 -21 30 -113 28 -45 -1 -133 -4 -196 -5z"/>
<path d="M2919 3298 c-7 -12 -16 -36 -20 -53 -4 -16 -21 -68 -37 -115 -16 -47
-37 -112 -46 -145 -28 -101 -50 -170 -57 -180 -4 -5 -10 -25 -14 -43 -3 -18
-13 -46 -22 -62 -8 -16 -12 -39 -8 -50 13 -42 63 -12 75 46 16 76 39 148 52
160 11 11 129 19 204 15 15 -1 43 -83 68 -193 7 -31 49 -50 84 -37 27 10 28
24 4 81 -11 24 -36 102 -56 173 -21 72 -44 146 -51 165 -7 19 -21 62 -30 95
-47 162 -46 160 -92 163 -35 3 -44 -1 -54 -20z m56 -146 c10 -31 29 -92 42
-134 14 -43 23 -84 20 -92 -5 -12 -22 -13 -84 -9 -43 3 -82 9 -86 13 -8 7 5
70 23 115 5 11 14 45 21 75 26 118 37 123 64 32z"/>
<path d="M4209 3308 c-5 -118 2 -653 9 -660 5 -5 100 -12 210 -15 199 -6 200
-6 212 16 9 17 9 26 -2 38 -11 13 -37 15 -173 12 l-160 -4 -2 298 c0 164 -4
304 -7 312 -7 19 -86 21 -87 3z"/>
<path d="M4915 3308 c-3 -7 -4 -159 -3 -338 l3 -325 43 -3 c23 -2 42 0 43 5 0
4 1 157 1 338 l1 330 -41 3 c-28 2 -44 -1 -47 -10z"/>
<path d="M5936 3312 c-2 -4 -6 -155 -7 -335 -3 -343 -1 -365 39 -341 23 15 27
116 12 338 -5 93 -9 171 -7 173 11 10 38 -12 43 -36 7 -35 59 -205 95 -311 16
-46 29 -92 29 -102 0 -29 37 -58 74 -58 39 0 63 20 72 58 3 15 12 43 19 62 23
59 101 331 107 373 2 10 8 17 13 15 6 -2 11 -93 12 -243 1 -132 2 -246 2 -253
1 -9 14 -12 44 -10 l42 3 0 335 0 335 -38 3 c-45 4 -61 -11 -76 -73 -5 -22
-36 -119 -69 -215 -32 -96 -65 -203 -73 -237 -7 -35 -18 -63 -24 -63 -11 0
-32 51 -59 145 -10 33 -24 75 -32 93 -8 18 -14 41 -14 50 0 10 -4 22 -9 27 -5
6 -25 64 -46 130 -21 66 -42 126 -47 133 -11 13 -94 17 -102 4z"/>
<path d="M6997 3291 c-9 -16 -17 -37 -17 -46 0 -9 -6 -31 -14 -48 -8 -18 -24
-66 -36 -107 -12 -41 -25 -86 -30 -100 -5 -14 -25 -79 -45 -145 -20 -66 -41
-128 -46 -137 -15 -28 -11 -68 8 -75 20 -8 53 30 53 63 0 12 4 25 9 28 5 3 12
27 16 53 12 88 20 93 140 93 63 0 106 -4 110 -11 4 -6 18 -54 31 -107 13 -52
29 -99 36 -104 22 -14 78 -9 84 7 5 13 -20 102 -61 215 -7 19 -20 60 -29 90
-50 172 -80 270 -95 310 -16 42 -20 45 -57 48 -34 3 -41 -1 -57 -27z m58 -124
c54 -184 65 -225 65 -240 0 -14 -10 -16 -82 -10 -46 3 -87 9 -92 14 -5 5 -1
32 11 66 11 32 28 92 37 133 10 41 19 81 22 88 7 23 23 3 39 -51z"/>
<path d="M8420 3313 c-1 -12 -1 -646 -1 -661 1 -9 14 -12 44 -10 l42 3 3 98 3
97 50 0 c28 0 67 -8 87 -17 21 -9 100 -78 177 -152 174 -169 219 -196 326
-196 80 0 109 12 109 45 0 24 -25 32 -75 24 -63 -9 -120 22 -225 123 -98 93
-159 142 -176 143 -11 0 -44 32 -44 43 0 3 15 10 34 17 37 12 82 50 111 95 30
45 28 177 -2 226 -68 109 -118 129 -314 129 -82 0 -149 -3 -149 -7z m304 -71
c16 -9 43 -34 60 -55 28 -35 31 -46 31 -106 0 -57 -4 -74 -27 -109 -16 -23
-39 -49 -53 -58 -30 -19 -204 -39 -218 -25 -10 10 -10 358 0 374 9 15 174 -2
207 -21z"/>
<path d="M9436 3288 c-8 -18 -20 -53 -27 -78 -7 -25 -16 -49 -21 -54 -4 -6 -8
-19 -8 -29 0 -10 -6 -33 -13 -50 -8 -18 -21 -57 -30 -87 -31 -110 -88 -285
-97 -302 -12 -21 -4 -44 18 -53 27 -10 37 8 77 150 9 33 19 66 21 73 3 9 31
12 115 10 l111 -3 14 -40 c7 -22 19 -65 25 -95 14 -71 32 -90 81 -90 34 0 38
3 38 25 0 13 -6 39 -14 57 -23 55 -43 110 -60 168 -47 161 -79 268 -87 288 -5
13 -14 44 -20 70 -13 61 -24 72 -71 72 -35 0 -41 -4 -52 -32z m48 -100 c24
-55 68 -211 70 -243 l1 -30 -80 3 c-44 2 -84 8 -89 13 -6 5 -1 37 13 81 13 40
27 86 32 102 5 16 9 43 9 61 0 55 23 61 44 13z"/>
<path d="M10023 3308 c-6 -8 -11 -112 -12 -273 -1 -143 -4 -285 -7 -315 -7
-70 10 -99 46 -80 l23 12 -6 197 c-4 108 -10 223 -13 256 l-7 60 27 -24 c14
-14 26 -32 26 -41 0 -10 26 -98 59 -196 32 -99 62 -194 66 -212 8 -37 30 -52
78 -52 37 0 44 9 72 90 41 120 63 190 75 240 7 30 18 71 26 90 7 19 14 44 16
54 2 11 9 21 16 24 11 3 13 -39 12 -234 -1 -132 -1 -245 -1 -251 2 -21 79 -17
88 5 4 9 6 161 3 337 l-5 320 -41 3 c-45 3 -50 -3 -74 -93 -5 -16 -18 -55 -30
-85 -34 -90 -64 -184 -105 -330 -10 -36 -22 -69 -26 -74 -8 -9 -49 74 -49 99
0 8 -6 29 -14 47 -14 33 -59 166 -76 223 -56 191 -66 209 -116 213 -25 2 -45
-2 -51 -10z"/>
<path d="M4871 2173 c-12 -14 -24 -38 -27 -52 -3 -14 -10 -39 -15 -55 -5 -16
-9 -147 -9 -292 0 -258 0 -264 21 -275 27 -14 44 2 89 86 56 107 81 111 77 15
-2 -50 2 -62 22 -84 43 -46 95 -29 157 52 41 54 47 105 12 100 -12 -2 -29 -18
-40 -39 -24 -48 -63 -83 -82 -76 -12 5 -16 22 -16 75 0 55 -4 73 -20 90 -24
25 -21 25 -54 12 -14 -5 -42 -34 -61 -65 -20 -30 -41 -55 -47 -55 -19 0 -2 72
29 125 49 82 93 233 93 316 0 118 -76 190 -129 122z m63 -49 c12 -32 6 -145
-13 -223 -22 -90 -28 -104 -42 -95 -15 9 0 262 18 302 17 35 28 40 37 16z"/>
<path d="M6430 2132 c-50 -55 -54 -71 -58 -234 l-4 -156 -32 -6 c-54 -10 -106
-84 -106 -149 0 -25 9 -44 29 -66 39 -42 72 -41 108 4 15 19 33 35 38 35 6 0
23 -16 38 -35 40 -50 75 -48 130 8 67 67 86 137 38 137 -13 0 -26 -13 -37 -37
-22 -49 -53 -83 -75 -83 -21 0 -59 58 -59 90 0 12 6 36 14 53 55 128 66 174
73 303 5 87 4 92 -22 122 -30 35 -52 39 -75 14z m44 -76 c8 -32 -10 -201 -26
-246 -7 -20 -17 -37 -23 -38 -14 -2 -9 199 5 246 6 21 13 43 15 50 7 20 22 14
29 -12z m-89 -376 c9 -28 -11 -83 -40 -110 -34 -32 -55 -20 -55 30 0 33 6 48
29 71 34 34 57 37 66 9z"/>
<path d="M8027 2128 c-45 -43 -61 -109 -61 -255 1 -73 -2 -133 -5 -134 -3 0
-17 -2 -30 -3 -13 -2 -39 -19 -58 -39 -30 -33 -33 -43 -33 -97 0 -53 3 -64 26
-85 37 -35 59 -31 106 16 37 38 42 40 51 23 48 -92 120 -82 186 26 39 63 40
90 5 90 -19 0 -28 -8 -39 -32 -20 -49 -54 -88 -76 -88 -22 0 -59 54 -59 86 0
20 16 68 40 119 5 11 15 40 21 65 37 152 36 266 -2 306 -28 30 -41 30 -72 2z
m50 -75 c9 -22 -24 -242 -38 -259 -21 -25 -29 -15 -29 37 0 46 14 160 26 217
5 26 32 29 41 5z m-96 -369 c16 -19 -2 -76 -34 -111 -27 -30 -45 -29 -59 2
-14 30 4 77 40 105 30 24 36 25 53 4z"/>
<path d="M5757 1737 c-34 -40 -52 -86 -40 -98 13 -13 25 -9 62 18 l24 18 -6
-30 c-24 -109 -18 -155 21 -155 18 0 33 19 67 85 37 71 60 99 75 90 8 -5 10
-21 5 -51 -5 -33 -1 -52 15 -83 18 -37 24 -41 59 -41 33 0 45 7 80 46 44 47
76 108 66 124 -16 25 -44 7 -80 -51 -29 -47 -42 -59 -58 -57 -20 3 -22 10 -25
78 -3 81 -18 110 -58 110 -23 0 -64 -41 -90 -91 -22 -43 -34 -35 -34 22 0 28
-5 59 -10 70 -14 26 -51 24 -73 -4z"/>
<path d="M6736 1733 c-37 -39 -49 -78 -29 -95 13 -10 18 -9 33 10 10 12 21 22
24 22 4 0 6 -36 5 -81 -1 -44 3 -85 9 -91 23 -23 48 -1 93 82 25 47 53 86 62
88 15 3 17 -8 17 -88 l0 -91 26 3 c21 2 33 17 61 68 48 91 61 110 78 110 12 0
15 -14 15 -61 0 -104 56 -149 126 -102 41 26 94 103 94 134 0 47 -32 37 -71
-23 -63 -95 -96 -90 -91 13 3 52 0 65 -19 85 -32 34 -62 30 -96 -11 -15 -19
-41 -50 -56 -68 l-29 -32 6 32 c7 42 -10 91 -35 98 -29 9 -62 -16 -90 -69 -13
-25 -28 -45 -34 -43 -5 2 -12 28 -15 58 -3 30 -9 60 -13 67 -13 20 -45 14 -71
-15z"/>
<path d="M5369 1740 c-54 -16 -99 -84 -99 -149 0 -31 7 -46 31 -70 37 -38 65
-39 101 -6 15 14 30 25 34 25 3 0 15 -11 26 -25 38 -49 107 -23 164 62 41 62
45 93 10 93 -19 0 -31 -12 -56 -55 -44 -77 -91 -88 -104 -24 -6 33 -23 59 -37
59 -4 0 -19 -21 -32 -47 -18 -38 -29 -48 -48 -48 -21 0 -24 5 -27 42 -3 36 1
47 25 69 27 25 53 28 101 13 8 -2 19 4 25 13 9 14 8 21 -3 32 -19 18 -78 26
-111 16z"/>
<path d="M7499 1740 c-54 -16 -99 -84 -99 -149 0 -31 7 -46 31 -70 37 -38 65
-39 102 -5 l29 26 27 -26 c40 -39 73 -34 125 18 76 76 95 136 42 136 -17 0
-27 -8 -34 -28 -5 -15 -22 -42 -37 -60 -38 -45 -66 -40 -81 13 -9 32 -15 40
-35 40 -16 0 -25 -7 -27 -20 -7 -36 -34 -66 -56 -63 -17 2 -22 11 -24 45 -3
36 1 47 24 68 27 25 77 34 89 15 10 -16 23 -12 36 11 8 17 8 24 -3 34 -18 17
-77 25 -109 15z"/>
<path d="M8329 1719 c-57 -62 -31 -187 47 -224 54 -25 93 -14 147 44 69 72 87
131 42 131 -19 0 -30 -10 -46 -41 -11 -23 -28 -50 -37 -60 -23 -24 -69 -34
-87 -19 -13 11 -10 18 20 51 49 55 49 111 -2 138 -34 18 -53 13 -84 -20z m64
-64 c-3 -32 -21 -49 -39 -34 -18 15 3 71 25 67 11 -3 15 -13 14 -33z"/>
</g>
</svg>
